<svg width="60" height="60" viewBox="0 0 60 60" fill="none" xmlns="http://www.w3.org/2000/svg">
<path d="M59.5332 54.1816C59.5244 54.1978 59.5095 54.222 59.4999 54.2379C58.6919 56.3547 56.6573 57.8906 54.256 57.8906H5.48898C5.30605 57.8906 5.13613 57.7734 4.95754 57.7734H4.88664C4.86824 57.7734 4.85348 57.7644 4.83508 57.7622C3.66027 57.6239 2.60277 57.1421 1.76406 56.394C1.74836 56.3799 1.7275 56.3734 1.71168 56.3594L1.72164 56.3519C1.52383 56.1716 1.31863 55.9983 1.14801 55.7912C0.744191 55.3013 0.426402 54.7464 0.208164 54.1502C0.205063 54.146 0.202394 54.1414 0.200195 54.1366L0.210508 54.1323C0.20043 54.1047 0.234414 54.0367 0.351602 53.9325V22.5711C0.35141 21.8854 0.47721 21.2055 0.722734 20.5653L0.676211 20.5288C0.676211 20.5288 1.17977 19.0346 1.9259 18.3717C2.67203 17.7088 4.08437 17.1029 5.28074 16.9758L54.4805 16.974C55.6804 17.1029 56.6632 16.974 57.8389 18.3717C59.0144 19.7694 59.0998 20.5602 59.0998 20.5602L59.0542 20.5959C59.2924 21.2272 59.4144 21.8963 59.4142 22.571V53.966L59.3312 53.9028C59.4599 54.0372 59.5295 54.124 59.5175 54.1564L59.5332 54.1816Z" fill="white"/>
<path d="M55.729 26.4371H45.0708V20.3016H55.729V26.4371Z" fill="#F4F3EF"/>
<path d="M46.7151 34.2113H13.0601C12.5747 34.2113 12.1812 33.8179 12.1812 33.3324C12.1812 32.8469 12.5747 32.4535 13.0601 32.4535H46.715C47.2005 32.4535 47.5939 32.8469 47.5939 33.3324C47.5939 33.8179 47.2005 34.2113 46.7151 34.2113ZM47.594 40.2369C47.594 39.7513 47.2006 39.3579 46.7151 39.3579H13.0601C12.5747 39.3579 12.1812 39.7513 12.1812 40.2369C12.1812 40.7224 12.5747 41.1158 13.0601 41.1158H46.715C46.8304 41.1158 46.9448 41.0931 47.0514 41.0489C47.158 41.0047 47.2549 40.94 47.3366 40.8584C47.4182 40.7768 47.4829 40.6799 47.5271 40.5732C47.5713 40.4666 47.594 40.3523 47.594 40.2369ZM47.594 47.1415C47.594 46.656 47.2006 46.2626 46.7151 46.2626H13.0601C12.5747 46.2626 12.1812 46.656 12.1812 47.1415C12.1812 47.627 12.5747 48.0204 13.0601 48.0204H46.715C46.8304 48.0205 46.9448 47.9977 47.0514 47.9536C47.158 47.9094 47.2549 47.8447 47.3366 47.7631C47.4182 47.6815 47.4829 47.5846 47.5271 47.4779C47.5713 47.3713 47.594 47.257 47.594 47.1415Z" fill="#597B91"/>
<path d="M56.3486 21.5224C56.3498 21.6045 56.3346 21.6859 56.304 21.7621C56.2734 21.8382 56.2279 21.9075 56.1703 21.9659C56.1126 22.0243 56.044 22.0707 55.9683 22.1024C55.8926 22.1341 55.8113 22.1504 55.7293 22.1504C55.6472 22.1504 55.5659 22.1341 55.4902 22.1024C55.4145 22.0707 55.3459 22.0243 55.2882 21.9659C55.2306 21.9075 55.1852 21.8382 55.1545 21.7621C55.1239 21.6859 55.1087 21.6045 55.1099 21.5224C55.1121 21.3596 55.1783 21.2042 55.2943 21.0899C55.4102 20.9756 55.5664 20.9115 55.7293 20.9115C55.8921 20.9115 56.0483 20.9756 56.1643 21.0899C56.2802 21.2042 56.3464 21.3596 56.3486 21.5224ZM55.7292 24.6725C55.6471 24.6714 55.5657 24.6866 55.4895 24.7172C55.4134 24.7478 55.3441 24.7933 55.2857 24.8509C55.2273 24.9085 55.1809 24.9772 55.1492 25.0529C55.1175 25.1286 55.1012 25.2099 55.1012 25.2919C55.1012 25.374 55.1175 25.4552 55.1492 25.5309C55.1809 25.6066 55.2273 25.6753 55.2857 25.7329C55.3441 25.7906 55.4134 25.836 55.4895 25.8666C55.5657 25.8973 55.6471 25.9124 55.7292 25.9113C55.892 25.9091 56.0474 25.8428 56.1617 25.7269C56.276 25.611 56.3401 25.4547 56.3401 25.2919C56.3401 25.1291 56.276 24.9728 56.1617 24.8569C56.0474 24.741 55.892 24.6748 55.7292 24.6725ZM55.7292 22.7499C55.5649 22.7499 55.4073 22.8152 55.2912 22.9314C55.175 23.0475 55.1097 23.2051 55.1097 23.3694C55.1097 23.5337 55.175 23.6912 55.2912 23.8074C55.4073 23.9236 55.5649 23.9888 55.7292 23.9888C55.8935 23.9888 56.051 23.9236 56.1672 23.8074C56.2834 23.6912 56.3486 23.5337 56.3486 23.3694C56.3486 23.2051 56.2834 23.0475 56.1672 22.9314C56.051 22.8152 55.8935 22.7499 55.7292 22.7499ZM45.0711 20.9029C44.9888 20.9014 44.907 20.9162 44.8304 20.9466C44.7539 20.977 44.6842 21.0224 44.6254 21.0801C44.5666 21.1377 44.5199 21.2066 44.488 21.2825C44.4561 21.3584 44.4397 21.44 44.4397 21.5223C44.4397 21.6047 44.4561 21.6862 44.488 21.7622C44.5199 21.8381 44.5666 21.9069 44.6255 21.9646C44.6843 22.0223 44.754 22.0676 44.8305 22.098C44.9071 22.1284 44.9889 22.1432 45.0713 22.1416C45.2334 22.1385 45.3879 22.0718 45.5014 21.956C45.615 21.8402 45.6786 21.6844 45.6786 21.5222C45.6786 21.36 45.615 21.2043 45.5014 21.0885C45.3878 20.9727 45.2333 20.9061 45.0711 20.9029ZM45.0711 24.6725C44.9888 24.6709 44.907 24.6858 44.8304 24.7162C44.7539 24.7466 44.6842 24.792 44.6254 24.8496C44.5666 24.9073 44.5199 24.9761 44.488 25.0521C44.4561 25.128 44.4397 25.2096 44.4397 25.2919C44.4397 25.3743 44.4561 25.4558 44.488 25.5317C44.5199 25.6077 44.5666 25.6765 44.6255 25.7342C44.6843 25.7918 44.754 25.8372 44.8305 25.8676C44.9071 25.898 44.9889 25.9128 45.0713 25.9112C45.2334 25.908 45.3879 25.8414 45.5014 25.7256C45.615 25.6097 45.6786 25.454 45.6786 25.2918C45.6786 25.1296 45.615 24.9739 45.5014 24.8581C45.3878 24.7423 45.2333 24.6757 45.0711 24.6725ZM45.0711 22.7499C44.9069 22.7499 44.7493 22.8152 44.6332 22.9314C44.517 23.0475 44.4517 23.2051 44.4517 23.3693C44.4517 23.5336 44.517 23.6912 44.6332 23.8073C44.7493 23.9235 44.9069 23.9887 45.0711 23.9887C45.1532 23.9899 45.2347 23.9747 45.3108 23.9441C45.3869 23.9134 45.4562 23.868 45.5147 23.8104C45.5731 23.7527 45.6195 23.6841 45.6511 23.6084C45.6828 23.5326 45.6991 23.4514 45.6991 23.3693C45.6991 23.2873 45.6828 23.206 45.6511 23.1303C45.6195 23.0546 45.5731 22.9859 45.5147 22.9283C45.4562 22.8707 45.3869 22.8252 45.3108 22.7946C45.2347 22.764 45.1532 22.7488 45.0711 22.7499Z" fill="#545454"/>
<path d="M22.8559 28.8233L18.1873 21.616L19.039 19.7294L19.0304 19.7209L19.0486 19.7027C19.0518 19.6939 19.0569 19.6858 19.0635 19.6792C19.0702 19.6726 19.0782 19.6675 19.087 19.6643L20.031 18.7203C20.0341 18.7115 20.0392 18.7034 20.0459 18.6968C20.0525 18.6901 20.0606 18.6851 20.0694 18.6819L20.154 18.5973L20.1937 18.637L21.9826 17.8206L29.1899 22.4892C29.2335 22.5148 29.2716 22.5489 29.3021 22.5893C29.3325 22.6298 29.3546 22.6758 29.3672 22.7249L31.0849 29.4115C31.1251 29.5678 30.9333 29.6772 30.8191 29.5631L26.7038 25.4477C26.5198 25.2637 26.4335 24.9992 26.4881 24.7448C26.6118 24.1691 26.45 23.5443 26.0026 23.0969C25.2714 22.3657 24.0662 22.3971 23.3756 23.1913C22.7981 23.8555 22.7931 24.8594 23.3646 25.5289C23.8113 26.052 24.4789 26.2508 25.0936 26.1253C25.3549 26.072 25.6256 26.1485 25.8142 26.337L29.9296 30.4524C30.0437 30.5666 29.9343 30.7584 29.7779 30.7182L23.0913 29.0005C23.0423 28.9879 22.9963 28.9658 22.9559 28.9354C22.9155 28.905 22.8815 28.8669 22.8559 28.8233Z" fill="#545454"/>
<path d="M21.0639 20.7002C19.501 22.2631 17.8217 23.1555 17.1583 22.8094L17.1417 22.8261L16.1314 21.8158L1.16316 6.84743C1.01242 6.69667 0.927734 6.49221 0.927734 6.27901C0.927734 6.06582 1.01242 5.86135 1.16316 5.71059L6.07742 0.79622C6.22818 0.645477 6.43264 0.560791 6.64584 0.560791C6.85903 0.560791 7.0635 0.645477 7.21426 0.79622L19.8948 13.4767L22.1825 15.7645L23.1928 16.7747L23.1731 16.7944C23.5193 17.4579 22.6269 19.1372 21.0639 20.7002Z" fill="#445056"/>
<path d="M6.85595 0.511567C7.13438 0.790004 6.01384 2.36207 4.35306 4.02286C2.69227 5.68364 1.12032 6.80418 0.841767 6.52575C0.563329 6.24731 1.68388 4.67524 3.34466 3.01446C5.00544 1.35368 6.57751 0.233129 6.85595 0.511567ZM13.539 7.12059L7.48782 13.1718L8.58012 14.2641L14.6313 8.2129L13.539 7.12059Z" fill="#A1AAAD"/>
</svg>
