<svg width="50" height="62" viewBox="0 0 50 62" fill="none" xmlns="http://www.w3.org/2000/svg">
<path d="M42.3077 0H15.3846C13.3445 0 11.3879 0.810437 9.94533 2.25302C8.50274 3.69561 7.69231 5.65218 7.69231 7.69231C5.65218 7.69231 3.69561 8.50274 2.25302 9.94533C0.810437 11.3879 0 13.3445 0 15.3846V53.8462C0 55.8863 0.810437 57.8428 2.25302 59.2854C3.69561 60.728 5.65218 61.5385 7.69231 61.5385H34.6154C36.6555 61.5385 38.6121 60.728 40.0547 59.2854C41.4973 57.8428 42.3077 55.8863 42.3077 53.8462C44.3478 53.8462 46.3044 53.0357 47.747 51.5931C49.1896 50.1505 50 48.194 50 46.1538V7.69231C50 5.65218 49.1896 3.69561 47.747 2.25302C46.3044 0.810437 44.3478 0 42.3077 0ZM42.3077 50V15.3846C42.3077 13.3445 41.4973 11.3879 40.0547 9.94533C38.6121 8.50274 36.6555 7.69231 34.6154 7.69231H11.5385C11.5385 6.67224 11.9437 5.69396 12.665 4.97267C13.3863 4.25137 14.3646 3.84615 15.3846 3.84615H42.3077C43.3278 3.84615 44.306 4.25137 45.0273 4.97267C45.7486 5.69396 46.1538 6.67224 46.1538 7.69231V46.1538C46.1538 47.1739 45.7486 48.1522 45.0273 48.8735C44.306 49.5948 43.3278 50 42.3077 50ZM3.84615 15.3846C3.84615 14.3646 4.25137 13.3863 4.97267 12.665C5.69396 11.9437 6.67224 11.5385 7.69231 11.5385H34.6154C35.6354 11.5385 36.6137 11.9437 37.335 12.665C38.0563 13.3863 38.4615 14.3646 38.4615 15.3846V53.8462C38.4615 54.8662 38.0563 55.8445 37.335 56.5658C36.6137 57.2871 35.6354 57.6923 34.6154 57.6923H7.69231C6.67224 57.6923 5.69396 57.2871 4.97267 56.5658C4.25137 55.8445 3.84615 54.8662 3.84615 53.8462V15.3846Z" fill="#FED254"/>
</svg>
