<svg width="50" height="66" viewBox="0 0 50 66" fill="none" xmlns="http://www.w3.org/2000/svg">
<path d="M48.9464 0.462156C48.6179 0.226983 48.2368 0.0758756 47.8364 0.022048C47.436 -0.0317796 47.0285 0.0133124 46.6495 0.153381L46.6658 0.147963L16.6631 10.8143C16.1776 10.9878 15.7575 11.307 15.4603 11.7283C15.1631 12.1496 15.0033 12.6524 15.0027 13.168V47.9459C13.4694 47.1082 11.75 46.6695 10.0027 46.6702C7.46694 46.5678 4.9907 47.4713 3.11782 49.1839C1.24495 50.8964 0.124363 53.2795 0 55.8143V55.8359C0.11949 58.378 1.24042 60.7693 3.11781 62.4873C4.99519 64.2053 7.47634 65.1103 10.019 65.0044H10C12.5358 65.1067 15.0093 64.2033 16.8822 62.4907C18.7551 60.7781 19.8756 58.3951 20 55.8603V20.9443L45 12.2146V36.5185C43.4659 35.6831 41.7468 35.2454 40 35.2455H39.9973C37.4616 35.1424 34.988 36.0457 33.1154 37.7585C31.2428 39.4713 30.123 41.8548 30 44.3896V44.4112C30.1188 46.9535 31.2395 49.3453 33.1171 51.0634C34.9946 52.7816 37.4762 53.6863 40.019 53.5797H40L40.2844 53.5851C42.4706 53.5851 44.5941 52.8549 46.318 51.5104C48.0418 50.1659 49.2672 48.284 49.7996 46.1637L49.8131 46.096C49.934 45.8038 49.9975 45.4912 50 45.175V2.50441C50.0004 2.10562 49.9052 1.71255 49.7223 1.35815C49.5395 1.00375 49.2743 0.69836 48.9491 0.467573L48.941 0.462156H48.9464Z" fill="white"/>
</svg>
