<svg width="18" height="20" viewBox="0 0 18 20" fill="none" xmlns="http://www.w3.org/2000/svg">
<path d="M0.818193 19.6365C0.601195 19.6365 0.393084 19.5503 0.239643 19.3969C0.0862024 19.2434 0 19.0353 0 18.8183V0.818053C2.4342e-05 0.675875 0.0370974 0.536158 0.107565 0.412671C0.178033 0.289185 0.279463 0.186193 0.401858 0.113846C0.524253 0.0414992 0.663388 0.0022949 0.805549 9.7727e-05C0.94771 -0.00209945 1.08799 0.0327863 1.21256 0.101316L17.5764 9.10144C17.7047 9.17207 17.8117 9.27584 17.8862 9.40191C17.9607 9.52798 18 9.67174 18 9.81818C18 9.96462 17.9607 10.1084 17.8862 10.2345C17.8117 10.3605 17.7047 10.4643 17.5764 10.5349L1.21256 19.535C1.09176 19.6016 0.956099 19.6365 0.818193 19.6365Z" fill="white"/>
</svg>
