<svg width="23" height="24" viewBox="0 0 23 24" fill="none" xmlns="http://www.w3.org/2000/svg">
<path d="M2.21363 3.74892L0.231919 1.76722C0.0792819 1.60341 -0.00381521 1.38675 0.000134626 1.16288C0.00408446 0.939018 0.0947729 0.725426 0.253094 0.567105C0.411415 0.408784 0.625008 0.318095 0.848873 0.314146C1.07274 0.310196 1.2894 0.393293 1.4532 0.54593L22.7681 21.8608C22.9207 22.0246 23.0038 22.2413 22.9999 22.4651C22.9959 22.689 22.9052 22.9026 22.7469 23.0609C22.5886 23.2192 22.375 23.3099 22.1511 23.3139C21.9273 23.3178 21.7106 23.2347 21.5468 23.0821L18.9049 20.4414L18.9014 20.4771C18.8281 21.2254 18.491 21.9232 17.9504 22.4458C17.4099 22.9684 16.7011 23.2817 15.9508 23.3298L15.748 23.3356H7.252C6.50018 23.3355 5.77286 23.0682 5.20002 22.5812C4.62719 22.0943 4.24617 21.4196 4.12505 20.6775L4.09855 20.4771L2.62264 5.47716H1.70668C1.49786 5.47715 1.29612 5.40153 1.13875 5.26428C0.981374 5.12703 0.879026 4.93743 0.850627 4.73056L0.842562 4.61304C0.842571 4.40423 0.918192 4.20248 1.05544 4.04511C1.19269 3.88774 1.38228 3.78539 1.58916 3.75699L1.70668 3.74892H2.21363ZM17.3241 18.8606L14.3804 15.9157V17.5748C14.3803 17.7937 14.2972 18.0045 14.1477 18.1645C13.9982 18.3244 13.7936 18.4217 13.5752 18.4366C13.3567 18.4516 13.1408 18.383 12.971 18.2448C12.8011 18.1067 12.6901 17.9092 12.6602 17.6923L12.6522 17.5748V14.1875L10.3478 11.8831V17.5748C10.3478 17.7937 10.2646 18.0045 10.1151 18.1645C9.96567 18.3244 9.76105 18.4217 9.54263 18.4366C9.3242 18.4516 9.10825 18.383 8.93841 18.2448C8.76858 18.1067 8.65752 17.9092 8.62768 17.6923L8.61961 17.5748V10.1549L4.40503 5.94147L5.81872 20.3089C5.85105 20.6398 5.99687 20.9493 6.23145 21.1849C6.46603 21.4206 6.77491 21.5678 7.10568 21.6016L7.252 21.6085H15.748C16.4393 21.6085 17.0257 21.1188 17.1594 20.454L17.1824 20.3089L17.3241 18.8617V18.8606Z" fill="#FF0000"/>
<path d="M12.6729 9.32075L14.3804 11.0282V9.5097L14.3723 9.39218C14.3449 9.19141 14.2477 9.00668 14.0978 8.87027C13.948 8.73387 13.7549 8.65448 13.5525 8.64597C13.35 8.63746 13.151 8.70037 12.9902 8.82372C12.8294 8.94706 12.7171 9.12299 12.6729 9.32075Z" fill="#FF0000"/>
<path d="M18.6399 5.47716L17.762 14.4098L19.3427 15.9906L20.3762 5.47716H21.2933L21.4108 5.46909C21.6277 5.43925 21.8252 5.32819 21.9634 5.15835C22.1015 4.98852 22.1701 4.77257 22.1552 4.55414C22.1402 4.33571 22.043 4.13109 21.883 3.98163C21.723 3.83216 21.5123 3.74899 21.2933 3.74892H15.2445L15.2387 3.53693C15.1847 2.56292 14.7526 1.64847 14.0345 0.988174C13.3165 0.327881 12.3691 -0.0261212 11.394 0.00150332C10.4188 0.0291278 9.493 0.436198 8.81347 1.13608C8.13393 1.83597 7.75434 2.77342 7.7555 3.74892H7.10107L8.8293 5.47716H18.6399ZM11.5 1.73265C12.613 1.73265 13.5163 2.63594 13.5163 3.74892H9.48373L9.49064 3.58301C9.53228 3.07871 9.76201 2.60851 10.1342 2.26573C10.5065 1.92295 10.994 1.73267 11.5 1.73265Z" fill="#FF0000"/>
</svg>
