<svg width="23" height="20" viewBox="0 0 23 20" fill="none" xmlns="http://www.w3.org/2000/svg">
<path d="M8.58627 2.19836L5.03365 5.75019H0.958333C0.428854 5.75019 0 6.17904 0 6.70852V12.4585C0 12.9876 0.428854 13.4169 0.958333 13.4169H5.03365L8.58627 16.9687C9.18642 17.5688 10.2222 17.1472 10.2222 16.2911V2.87598C10.2222 2.01907 9.18563 1.599 8.58627 2.19836ZM17.9029 0.158709C17.4568 -0.133982 16.8575 -0.0105962 16.5648 0.436227C16.2717 0.882251 16.3963 1.48161 16.8423 1.7743C19.4885 3.51088 21.0678 6.4302 21.0678 9.58392C21.0678 12.7376 19.4885 15.657 16.8423 17.3935C16.3963 17.6858 16.2717 18.2856 16.5648 18.7312C16.8459 19.1589 17.4405 19.3126 17.9029 19.0087C21.0941 16.914 23 13.3901 23 9.58352C23 5.77694 21.0941 2.25347 17.9029 0.158709ZM19.1667 9.58352C19.1667 7.04673 17.8865 4.71439 15.7418 3.34477C15.295 3.05966 14.7024 3.19223 14.4193 3.64265C14.1362 4.09307 14.2684 4.68923 14.7152 4.97473C16.3024 5.98857 17.25 7.71118 17.25 9.58352C17.25 11.4559 16.3024 13.1785 14.7152 14.1923C14.2684 14.4774 14.1362 15.0736 14.4193 15.5244C14.6793 15.9381 15.2627 16.1289 15.7418 15.8223C17.8865 14.4527 19.1667 12.1207 19.1667 9.58352ZM13.5057 6.51406C13.0433 6.2613 12.4599 6.42781 12.2036 6.8914C11.9484 7.355 12.1173 7.93758 12.5809 8.19354C13.0964 8.47664 13.4167 9.00972 13.4167 9.58352C13.4167 10.1577 13.0964 10.6904 12.5813 10.9735C12.1177 11.2295 11.9488 11.812 12.204 12.2756C12.4607 12.7412 13.0445 12.9065 13.5061 12.653C14.6334 12.0321 15.3337 10.8561 15.3337 9.58312C15.3337 8.31013 14.6334 7.13458 13.5057 6.51406Z" fill="#F2F6FE"/>
</svg>
