<svg width="20" height="19" viewBox="0 0 20 19" fill="none" xmlns="http://www.w3.org/2000/svg">
<path d="M7.36842 3.68421C7.36842 1.65263 5.71579 0 3.68421 0C1.65263 0 0 1.65263 0 3.68421C0 5.71579 1.65263 7.36842 3.68421 7.36842C4.27718 7.3643 4.86012 7.21504 5.38211 6.93368L7.86316 9.59474L5.42316 12.0347C4.8907 11.7399 4.29284 11.5832 3.68421 11.5789C1.65263 11.5789 0 13.2316 0 15.2632C0 17.2947 1.65263 18.9474 3.68421 18.9474C5.71579 18.9474 7.36842 17.2947 7.36842 15.2632C7.36842 14.6305 7.19368 14.0442 6.91158 13.5242L9.3 11.1368L14.7368 16.9695C15.3289 17.5617 16.132 17.8946 16.9695 17.8947H20L6.68421 5.80842C7.11158 5.20632 7.36842 4.47684 7.36842 3.68421ZM3.68421 5.26316C2.81368 5.26316 2.10526 4.55474 2.10526 3.68421C2.10526 2.81368 2.81368 2.10526 3.68421 2.10526C4.55474 2.10526 5.26316 2.81368 5.26316 3.68421C5.26316 4.55474 4.55474 5.26316 3.68421 5.26316ZM3.68421 16.8421C2.81368 16.8421 2.10526 16.1337 2.10526 15.2632C2.10526 14.3926 2.81368 13.6842 3.68421 13.6842C4.55474 13.6842 5.26316 14.3926 5.26316 15.2632C5.26316 16.1337 4.55474 16.8421 3.68421 16.8421Z" fill="#1D1F42"/>
<path d="M14.7368 1.9779L10.8347 6.62421L12.3232 8.11263L20 1.05263H16.9695C16.132 1.05281 15.3289 1.38563 14.7368 1.9779Z" fill="#1D1F42"/>
</svg>
