<svg width="23" height="23" viewBox="0 0 23 23" fill="none" xmlns="http://www.w3.org/2000/svg">
<path d="M21.85 0H6.9C6.59511 0.000342428 6.3028 0.121613 6.0872 0.337205C5.87161 0.552798 5.75034 0.845106 5.75 1.15V16.1C5.75034 16.4049 5.87161 16.6972 6.0872 16.9128C6.3028 17.1284 6.59511 17.2497 6.9 17.25H21.85C22.1549 17.2497 22.4472 17.1284 22.6628 16.9128C22.8784 16.6972 22.9997 16.4049 23 16.1V1.15C22.9997 0.845106 22.8784 0.552798 22.6628 0.337205C22.4472 0.121613 22.1549 0.000342428 21.85 0ZM21.4667 15.7167H7.28333V1.53333H21.4667V15.7167Z" fill="#F2F6FE"/>
<path d="M15.7167 21.4667H1.53333V7.28333H4.21667V5.75H1.15C0.845106 5.75034 0.552798 5.87161 0.337205 6.0872C0.121613 6.3028 0.000342428 6.59511 0 6.9V21.85C0.000342428 22.1549 0.121613 22.4472 0.337205 22.6628C0.552798 22.8784 0.845106 22.9997 1.15 23H16.1C16.4049 22.9997 16.6972 22.8784 16.9128 22.6628C17.1284 22.4472 17.2497 22.1549 17.25 21.85V18.7833H15.7167V21.4667Z" fill="#F2F6FE"/>
</svg>
