<svg width="28" height="26" viewBox="0 0 28 26" fill="none" xmlns="http://www.w3.org/2000/svg">
<path d="M1.0606 6.0683C0.897548 6.10493 0.748047 6.1866 0.629106 6.30399C0.510166 6.42139 0.426562 6.56982 0.387803 6.73238C0.349043 6.89495 0.356686 7.06512 0.409861 7.22356C0.463036 7.38199 0.559608 7.52233 0.688593 7.62859L8.10726 12.7523C8.24554 12.8478 8.40794 12.9023 8.57581 12.9096C8.74368 12.9169 8.9102 12.8767 9.05623 12.7935L18.0029 7.68485C18.4335 7.45545 18.8672 7.98659 18.5564 8.36261L11.7625 16.1076C11.6519 16.2341 11.5792 16.3892 11.5528 16.5552C11.5264 16.7211 11.5473 16.8911 11.6132 17.0457L15.1507 25.3388C15.229 25.4864 15.3472 25.6091 15.4919 25.6928C15.6365 25.7766 15.8017 25.8181 15.9687 25.8126C16.1357 25.8071 16.2979 25.7549 16.4367 25.6618C16.5755 25.5687 16.6854 25.4386 16.7539 25.2861L27.3934 1.612C27.4612 1.46082 27.4855 1.29377 27.4638 1.12953C27.442 0.965291 27.375 0.810342 27.2702 0.682018C27.1654 0.553693 27.027 0.457056 26.8704 0.402914C26.7139 0.348771 26.5453 0.339258 26.3836 0.375442L1.0606 6.0683Z" fill="#F2F6FE"/>
</svg>
