<svg width="20" height="27" viewBox="0 0 20 27" fill="none" xmlns="http://www.w3.org/2000/svg">
<path d="M14.7567 10.2433C14.8343 10.3207 14.8958 10.4127 14.9379 10.5139C14.9799 10.6152 15.0015 10.7237 15.0015 10.8333C15.0015 10.9429 14.9799 11.0515 14.9379 11.1527C14.8958 11.254 14.8343 11.3459 14.7567 11.4233L9.75667 16.4233C9.67926 16.5009 9.5873 16.5625 9.48606 16.6045C9.38481 16.6465 9.27628 16.6682 9.16667 16.6682C9.05705 16.6682 8.94852 16.6465 8.84728 16.6045C8.74603 16.5625 8.65408 16.5009 8.57667 16.4233L6.07667 13.9233C5.99919 13.8459 5.93773 13.7539 5.89579 13.6526C5.85386 13.5514 5.83228 13.4429 5.83228 13.3333C5.83228 13.2238 5.85386 13.1153 5.89579 13.014C5.93773 12.9128 5.99919 12.8208 6.07667 12.7433C6.15415 12.6659 6.24613 12.6044 6.34736 12.5625C6.44859 12.5205 6.55709 12.4989 6.66667 12.4989C6.77624 12.4989 6.88474 12.5205 6.98597 12.5625C7.0872 12.6044 7.17919 12.6659 7.25667 12.7433L9.16667 14.655L13.5767 10.2433C13.6541 10.1657 13.746 10.1042 13.8473 10.0621C13.9485 10.0201 14.0571 9.99851 14.1667 9.99851C14.2763 9.99851 14.3848 10.0201 14.4861 10.0621C14.5873 10.1042 14.6793 10.1657 14.7567 10.2433Z" fill="#1FB75F"/>
<path d="M3.33333 0C2.44928 0 1.60143 0.35119 0.976311 0.976311C0.351189 1.60143 0 2.44928 0 3.33333V23.3333C0 24.2174 0.351189 25.0652 0.976311 25.6904C1.60143 26.3155 2.44928 26.6667 3.33333 26.6667H16.6667C17.5507 26.6667 18.3986 26.3155 19.0237 25.6904C19.6488 25.0652 20 24.2174 20 23.3333V3.33333C20 2.44928 19.6488 1.60143 19.0237 0.976311C18.3986 0.35119 17.5507 0 16.6667 0H3.33333ZM3.33333 1.66667H16.6667C17.1087 1.66667 17.5326 1.84226 17.8452 2.15482C18.1577 2.46738 18.3333 2.89131 18.3333 3.33333V23.3333C18.3333 23.7754 18.1577 24.1993 17.8452 24.5118C17.5326 24.8244 17.1087 25 16.6667 25H3.33333C2.89131 25 2.46738 24.8244 2.15482 24.5118C1.84226 24.1993 1.66667 23.7754 1.66667 23.3333V3.33333C1.66667 2.89131 1.84226 2.46738 2.15482 2.15482C2.46738 1.84226 2.89131 1.66667 3.33333 1.66667Z" fill="#1FB75F"/>
</svg>
