<svg width="28" height="39" viewBox="0 0 28 39" fill="none" xmlns="http://www.w3.org/2000/svg">
<path d="M14 23.7576C17.9836 23.7576 21.2121 20.5673 21.2121 16.6303V7.12727C21.2121 3.1903 17.9836 0 14 0C10.0164 0 6.78788 3.1903 6.78788 7.12727V16.6303C6.78788 20.5673 10.0164 23.7576 14 23.7576ZM28 16.5455C28 16.3588 27.8473 16.2061 27.6606 16.2061H25.1152C24.9285 16.2061 24.7758 16.3588 24.7758 16.5455C24.7758 22.4976 19.9521 27.3212 14 27.3212C8.04788 27.3212 3.22424 22.4976 3.22424 16.5455C3.22424 16.3588 3.07152 16.2061 2.88485 16.2061H0.339394C0.152727 16.2061 0 16.3588 0 16.5455C0 23.7024 5.37091 29.6079 12.303 30.4436V34.7879H6.13879C5.55758 34.7879 5.09091 35.3945 5.09091 36.1455V37.6727C5.09091 37.8594 5.2097 38.0121 5.35394 38.0121H22.6461C22.7903 38.0121 22.9091 37.8594 22.9091 37.6727V36.1455C22.9091 35.3945 22.4424 34.7879 21.8612 34.7879H15.5273V30.4648C22.54 29.7012 28 23.7618 28 16.5455Z" fill="white"/>
</svg>
