<svg width="25" height="25" viewBox="0 0 25 25" fill="none" xmlns="http://www.w3.org/2000/svg">
<path d="M23.75 0H7.5C7.16859 0.000372204 6.85087 0.132188 6.61653 0.366528C6.38219 0.600867 6.25037 0.918594 6.25 1.25V17.5C6.25037 17.8314 6.38219 18.1491 6.61653 18.3835C6.85087 18.6178 7.16859 18.7496 7.5 18.75H23.75C24.0814 18.7496 24.3991 18.6178 24.6335 18.3835C24.8678 18.1491 24.9996 17.8314 25 17.5V1.25C24.9996 0.918594 24.8678 0.600867 24.6335 0.366528C24.3991 0.132188 24.0814 0.000372204 23.75 0ZM23.3333 17.0833H7.91667V1.66667H23.3333V17.0833Z" fill="#797FAE"/>
<path d="M17.0833 23.3333H1.66667V7.91667H4.58333V6.25H1.25C0.918594 6.25037 0.600867 6.38219 0.366528 6.61653C0.132188 6.85087 0.000372204 7.16859 0 7.5V23.75C0.000372204 24.0814 0.132188 24.3991 0.366528 24.6335C0.600867 24.8678 0.918594 24.9996 1.25 25H17.5C17.8314 24.9996 18.1491 24.8678 18.3835 24.6335C18.6178 24.3991 18.7496 24.0814 18.75 23.75V20.4167H17.0833V23.3333Z" fill="#797FAE"/>
</svg>
