<svg width="25" height="24" viewBox="0 0 25 24" fill="none" xmlns="http://www.w3.org/2000/svg">
<path d="M9.21053 4.60526C9.21053 2.06579 7.14474 0 4.60526 0C2.06579 0 0 2.06579 0 4.60526C0 7.14474 2.06579 9.21053 4.60526 9.21053C5.34648 9.20538 6.07515 9.01881 6.72763 8.66711L9.82895 11.9934L6.77895 15.0434C6.11337 14.6749 5.36605 14.479 4.60526 14.4737C2.06579 14.4737 0 16.5395 0 19.0789C0 21.6184 2.06579 23.6842 4.60526 23.6842C7.14474 23.6842 9.21053 21.6184 9.21053 19.0789C9.21053 18.2882 8.99211 17.5553 8.63947 16.9053L11.625 13.9211L18.4211 21.2118C19.1612 21.9522 20.165 22.3682 21.2118 22.3684H25L8.35526 7.26053C8.88947 6.50789 9.21053 5.59605 9.21053 4.60526ZM4.60526 6.57895C3.51711 6.57895 2.63158 5.69342 2.63158 4.60526C2.63158 3.51711 3.51711 2.63158 4.60526 2.63158C5.69342 2.63158 6.57895 3.51711 6.57895 4.60526C6.57895 5.69342 5.69342 6.57895 4.60526 6.57895ZM4.60526 21.0526C3.51711 21.0526 2.63158 20.1671 2.63158 19.0789C2.63158 17.9908 3.51711 17.1053 4.60526 17.1053C5.69342 17.1053 6.57895 17.9908 6.57895 19.0789C6.57895 20.1671 5.69342 21.0526 4.60526 21.0526Z" fill="#797FAE"/>
<path d="M18.4211 2.47237L13.5434 8.28026L15.4039 10.1408L25 1.31579H21.2118C20.165 1.31601 19.1612 1.73204 18.4211 2.47237Z" fill="#797FAE"/>
</svg>
