<svg width="23" height="23" viewBox="0 0 23 23" fill="none" xmlns="http://www.w3.org/2000/svg">
<path d="M17.0224 14.1063C17.0224 15.1138 17.3087 15.5156 18.0574 15.5156C19.7261 15.5156 20.7886 13.3867 20.7886 9.846C20.7886 4.43424 16.8499 1.8435 11.9324 1.8435C6.87365 1.8435 2.27245 5.24025 2.27245 11.6595C2.27245 17.7909 6.29745 21.1301 12.4787 21.1301C14.5774 21.1301 15.9862 20.8998 18.1413 20.1802L18.6036 22.1076C16.4761 22.7997 14.2025 23 12.4499 23C4.34245 23 0 18.5382 0 11.6583C0 4.7209 5.03245 0 11.9612 0C19.1775 0 23 4.3179 23 9.61452C23 14.1051 21.5924 17.5307 17.1649 17.5307C15.1513 17.5307 13.8299 16.7247 13.6574 14.9387C13.1399 16.925 11.7599 17.5307 9.89 17.5307C7.38875 17.5307 5.29 15.6008 5.29 11.7159C5.29 7.801 7.1312 5.38298 10.4374 5.38298C12.1912 5.38298 13.2837 6.07384 13.7701 7.16771L14.605 5.64205H17.02V14.1063H17.0224ZM13.4873 10.3066C13.4873 8.72455 12.3074 8.06127 11.3299 8.06127C10.2661 8.06127 9.08859 8.92365 9.08859 11.458C9.08859 13.473 9.97985 14.5957 11.3299 14.5957C12.2786 14.5957 13.4873 13.9912 13.4873 12.3216V10.3066Z" fill="white"/>
</svg>
