<svg width="125" height="23" viewBox="0 0 125 23" fill="none" xmlns="http://www.w3.org/2000/svg">
<path d="M12.5 0L15.3064 8.63729H24.3882L17.0409 13.9754L19.8473 22.6127L12.5 17.2746L5.15271 22.6127L7.95913 13.9754L0.611816 8.63729H9.6936L12.5 0Z" fill="#FFB800"/>
<path d="M37.5 0L40.3064 8.63729H49.3882L42.0409 13.9754L44.8473 22.6127L37.5 17.2746L30.1527 22.6127L32.9591 13.9754L25.6118 8.63729H34.6936L37.5 0Z" fill="#FFB800"/>
<path d="M62.5 0L65.3064 8.63729H74.3882L67.0409 13.9754L69.8473 22.6127L62.5 17.2746L55.1527 22.6127L57.9591 13.9754L50.6118 8.63729H59.6936L62.5 0Z" fill="#FFB800"/>
<path d="M87.5 0L90.3064 8.63729H99.3882L92.0409 13.9754L94.8473 22.6127L87.5 17.2746L80.1527 22.6127L82.9591 13.9754L75.6118 8.63729H84.6936L87.5 0Z" fill="#FFB800"/>
<path d="M112.5 0L115.306 8.63729H124.388L117.041 13.9754L119.847 22.6127L112.5 17.2746L105.153 22.6127L107.959 13.9754L100.612 8.63729H109.694L112.5 0Z" fill="#FFB800"/>
</svg>
