<svg width="37" height="35" viewBox="0 0 37 35" fill="none" xmlns="http://www.w3.org/2000/svg">
<path d="M31.75 15C31.75 15.4142 32.0858 15.75 32.5 15.75C32.9142 15.75 33.25 15.4142 33.25 15H31.75ZM18.5 1V0.25V1ZM3.75 15C3.75 15.4142 4.08579 15.75 4.5 15.75C4.91421 15.75 5.25 15.4142 5.25 15H3.75ZM1 19.4835L0.25 19.4834V19.4835H1ZM3.65125 16.0885L3.83313 16.8161L3.83355 16.816L3.65125 16.0885ZM6.69625 15.3255L6.515 14.5977L6.51396 14.598L6.69625 15.3255ZM8 16.344H8.75V16.3437L8 16.344ZM8 25.9043H7.25L7.25 25.9056L8 25.9043ZM6.6945 26.9245L6.877 26.1971L6.8764 26.1969L6.6945 26.9245ZM3.6495 26.1633L3.46725 26.8908L3.4676 26.8909L3.6495 26.1633ZM1 22.7683H0.25V22.7683L1 22.7683ZM36 19.4835H36.75V19.4834L36 19.4835ZM33.3488 16.0885L33.1665 16.816L33.1669 16.8161L33.3488 16.0885ZM30.3038 15.3255L30.486 14.598L30.485 14.5977L30.3038 15.3255ZM29 16.344L28.25 16.3437V16.344H29ZM29 25.9043L29.75 25.9052V25.9043H29ZM30.3038 26.9245L30.485 27.6523L30.4857 27.6521L30.3038 26.9245ZM33.3488 26.1633L33.1669 25.4356L33.1669 25.4357L33.3488 26.1633ZM36 22.7683L36.75 22.7684V22.7683H36ZM14.0188 33.4812L14.5492 32.9508L14.0188 33.4812ZM13.25 31.625H12.5H13.25ZM23.75 31.625H24.5H23.75ZM22.9812 33.4812L22.4508 32.9508L22.9812 33.4812ZM33.25 15C33.25 11.0881 31.696 7.33634 28.9298 4.57018L27.8692 5.63084C30.354 8.11569 31.75 11.4859 31.75 15H33.25ZM28.9298 4.57018C26.1637 1.80401 22.4119 0.25 18.5 0.25V1.75C22.0141 1.75 25.3843 3.14598 27.8692 5.63084L28.9298 4.57018ZM18.5 0.25C14.5881 0.25 10.8363 1.80401 8.07018 4.57018L9.13084 5.63084C11.6157 3.14598 14.9859 1.75 18.5 1.75V0.25ZM8.07018 4.57018C5.30401 7.33634 3.75 11.0881 3.75 15H5.25C5.25 11.4859 6.64598 8.11569 9.13084 5.63084L8.07018 4.57018ZM1.75 19.4836C1.75009 18.8704 1.95515 18.2748 2.33259 17.7914L1.15037 16.8682C0.567057 17.6152 0.250144 18.5357 0.25 19.4834L1.75 19.4836ZM2.33259 17.7914C2.71003 17.3081 3.23819 16.9648 3.83313 16.8161L3.46938 15.3609C2.54993 15.5907 1.73369 16.1213 1.15037 16.8682L2.33259 17.7914ZM3.83355 16.816L6.87855 16.053L6.51396 14.598L3.46896 15.361L3.83355 16.816ZM6.8775 16.0533C6.92171 16.0423 6.96784 16.0415 7.01241 16.0509L7.32443 14.5838C7.05706 14.5269 6.78025 14.5317 6.515 14.5977L6.8775 16.0533ZM7.01241 16.0509C7.05697 16.0604 7.09879 16.0799 7.13469 16.108L8.05812 14.9259C7.84271 14.7576 7.5918 14.6406 7.32443 14.5838L7.01241 16.0509ZM7.13469 16.108C7.17059 16.136 7.19963 16.1719 7.21961 16.2128L8.56767 15.555C8.44779 15.3093 8.27354 15.0942 8.05812 14.9259L7.13469 16.108ZM7.21961 16.2128C7.23959 16.2538 7.24998 16.2987 7.25 16.3443L8.75 16.3437C8.7499 16.0704 8.68755 15.8006 8.56767 15.555L7.21961 16.2128ZM7.25 16.344V25.9043H8.75V16.344H7.25ZM7.25 25.9056C7.25008 25.9512 7.23974 25.9963 7.21976 26.0373L8.56856 26.6936C8.68842 26.4473 8.75047 26.1769 8.75 25.903L7.25 25.9056ZM7.21976 26.0373C7.19979 26.0784 7.1707 26.1143 7.13473 26.1424L8.05838 27.3243C8.27422 27.1557 8.44871 26.9399 8.56856 26.6936L7.21976 26.0373ZM7.13473 26.1424C7.09876 26.1706 7.05684 26.1901 7.01218 26.1996L7.32308 27.667C7.59106 27.6102 7.84255 27.493 8.05838 27.3243L7.13473 26.1424ZM7.01218 26.1996C6.96752 26.209 6.92129 26.2082 6.877 26.1971L6.512 27.652C6.77769 27.7186 7.05509 27.7238 7.32308 27.667L7.01218 26.1996ZM6.8764 26.1969L3.8314 25.4357L3.4676 26.8909L6.5126 27.6521L6.8764 26.1969ZM3.83175 25.4357C3.23707 25.2868 2.70922 24.9434 2.33205 24.4601L1.14954 25.3829C1.73244 26.1298 2.5482 26.6605 3.46725 26.8908L3.83175 25.4357ZM2.33205 24.4601C1.95488 23.9768 1.75002 23.3813 1.75 22.7682L0.25 22.7683C0.250025 23.7157 0.566635 24.636 1.14954 25.3829L2.33205 24.4601ZM36.75 19.4834C36.7499 18.5357 36.4329 17.6152 35.8496 16.8682L34.6674 17.7914C35.0448 18.2748 35.2499 18.8704 35.25 19.4836L36.75 19.4834ZM35.8496 16.8682C35.2663 16.1213 34.4501 15.5907 33.5306 15.3609L33.1669 16.8161C33.7618 16.9648 34.29 17.3081 34.6674 17.7914L35.8496 16.8682ZM33.531 15.361L30.486 14.598L30.1215 16.053L33.1665 16.816L33.531 15.361ZM30.485 14.5977C30.2198 14.5317 29.9429 14.5269 29.6756 14.5838L29.9876 16.0509C30.0322 16.0415 30.0783 16.0423 30.1225 16.0533L30.485 14.5977ZM29.6756 14.5838C29.4082 14.6406 29.1573 14.7576 28.9419 14.9259L29.8653 16.108C29.9012 16.0799 29.943 16.0604 29.9876 16.0509L29.6756 14.5838ZM28.9419 14.9259C28.7265 15.0942 28.5522 15.3093 28.4323 15.555L29.7804 16.2128C29.8004 16.1719 29.8294 16.136 29.8653 16.108L28.9419 14.9259ZM28.4323 15.555C28.3125 15.8006 28.2501 16.0704 28.25 16.3437L29.75 16.3443C29.75 16.2987 29.7604 16.2538 29.7804 16.2128L28.4323 15.555ZM28.25 16.344V25.9043H29.75V16.344H28.25ZM28.25 25.9033C28.2496 26.1769 28.3117 26.447 28.4313 26.693L29.7802 26.0369C29.7603 25.9959 29.7499 25.9508 29.75 25.9052L28.25 25.9033ZM28.4313 26.693C28.551 26.9391 28.7252 27.1546 28.9407 27.3232L29.8651 26.1419C29.8292 26.1138 29.8002 26.0779 29.7802 26.0369L28.4313 26.693ZM28.9407 27.3232C29.1562 27.4918 29.4072 27.6091 29.6748 27.6661L29.9875 26.199C29.9429 26.1895 29.901 26.17 29.8651 26.1419L28.9407 27.3232ZM29.6748 27.6661C29.9424 27.7231 30.2195 27.7184 30.485 27.6523L30.1225 26.1967C30.0782 26.2078 30.0321 26.2085 29.9875 26.199L29.6748 27.6661ZM30.4857 27.6521L33.5307 26.8909L33.1669 25.4357L30.1218 26.1969L30.4857 27.6521ZM33.5306 26.8909C34.4501 26.661 35.2663 26.1305 35.8496 25.3835L34.6674 24.4603C34.29 24.9436 33.7618 25.2869 33.1669 25.4356L33.5306 26.8909ZM35.8496 25.3835C36.4329 24.6366 36.7499 23.7161 36.75 22.7684L35.25 22.7681C35.2499 23.3814 35.0448 23.977 34.6674 24.4603L35.8496 25.3835ZM31.75 27.25V28.125H33.25V27.25H31.75ZM31.75 28.125C31.75 28.8544 31.4603 29.5538 30.9445 30.0696L32.0052 31.1302C32.8022 30.3332 33.25 29.2522 33.25 28.125H31.75ZM30.9445 30.0696C30.4288 30.5853 29.7293 30.875 29 30.875V32.375C30.1272 32.375 31.2082 31.9272 32.0052 31.1302L30.9445 30.0696ZM29 30.875H22.875V32.375H29V30.875ZM21.125 33.5H15.875V35H21.125V33.5ZM15.875 33.5C15.3777 33.5 14.9008 33.3025 14.5492 32.9508L13.4885 34.0115C14.1214 34.6444 14.9799 35 15.875 35V33.5ZM14.5492 32.9508C14.1975 32.5992 14 32.1223 14 31.625H12.5C12.5 32.5201 12.8556 33.3786 13.4885 34.0115L14.5492 32.9508ZM14 31.625C14 31.1277 14.1975 30.6508 14.5492 30.2992L13.4885 29.2385C12.8556 29.8715 12.5 30.7299 12.5 31.625H14ZM14.5492 30.2992C14.9008 29.9476 15.3777 29.75 15.875 29.75V28.25C14.9799 28.25 14.1214 28.6056 13.4885 29.2385L14.5492 30.2992ZM15.875 29.75H21.125V28.25H15.875V29.75ZM21.125 29.75C21.6223 29.75 22.0992 29.9476 22.4508 30.2992L23.5115 29.2385C22.8786 28.6056 22.0201 28.25 21.125 28.25V29.75ZM22.4508 30.2992C22.8025 30.6508 23 31.1277 23 31.625H24.5C24.5 30.7299 24.1444 29.8715 23.5115 29.2385L22.4508 30.2992ZM23 31.625C23 32.1223 22.8025 32.5992 22.4508 32.9508L23.5115 34.0115C24.1444 33.3786 24.5 32.5201 24.5 31.625H23ZM22.4508 32.9508C22.0992 33.3025 21.6223 33.5 21.125 33.5V35C22.0201 35 22.8786 34.6444 23.5115 34.0115L22.4508 32.9508ZM1.75 22.7683V19.4835H0.25V22.7683H1.75ZM36.75 22.7683V19.4835H35.25V22.7683H36.75Z" fill="white"/>
</svg>
