<svg width="23" height="23" viewBox="0 0 23 23" fill="none" xmlns="http://www.w3.org/2000/svg">
<path d="M6.73536 10.5471C8.26247 9.02017 10.9258 9.02017 12.4529 10.5471L13.4059 11.5L15.3117 9.5943L14.3588 8.64146C13.0878 7.36922 11.3949 6.66707 9.59415 6.66707C7.79342 6.66707 6.10053 7.36922 4.82951 8.64146L1.96938 11.5C0.708188 12.7651 0 14.4785 0 16.2648C0 18.0511 0.708188 19.7645 1.96938 21.0296C2.59461 21.6557 3.3374 22.1521 4.15507 22.4902C4.97274 22.8283 5.84917 23.0016 6.73401 23C7.61909 23.0018 8.4958 22.8287 9.31373 22.4906C10.1317 22.1524 10.8747 21.6559 11.5 21.0296L12.4529 20.0768L10.5471 18.1711L9.59415 19.124C8.83459 19.88 7.80646 20.3045 6.73469 20.3045C5.66292 20.3045 4.63478 19.88 3.87523 19.124C3.11842 18.3648 2.69345 17.3367 2.69345 16.2648C2.69345 15.1929 3.11842 14.1648 3.87523 13.4056L6.73536 10.5471Z" fill="white"/>
<path d="M11.5 1.97029L10.5471 2.92312L12.4529 4.82879L13.4059 3.87595C14.1654 3.11988 15.1935 2.6954 16.2653 2.6954C17.3371 2.6954 18.3652 3.11988 19.1248 3.87595C19.8816 4.63508 20.3066 5.66325 20.3066 6.73513C20.3066 7.807 19.8816 8.83517 19.1248 9.5943L16.2646 12.4528C14.7375 13.9797 12.0742 13.9797 10.5471 12.4528L9.59415 11.5L7.68829 13.4056L8.64122 14.3585C9.91224 15.6307 11.6051 16.3329 13.4059 16.3329C15.2066 16.3329 16.8995 15.6307 18.1705 14.3585L21.0306 11.5C22.2918 10.2348 23 8.52141 23 6.73513C23 4.94884 22.2918 3.23541 21.0306 1.97029C19.7657 0.708571 18.052 0 16.2653 0C14.4786 0 12.7649 0.708571 11.5 1.97029Z" fill="white"/>
</svg>
