<svg width="22" height="23" viewBox="0 0 22 23" fill="none" xmlns="http://www.w3.org/2000/svg">
<path fill-rule="evenodd" clip-rule="evenodd" d="M2.72059e-07 1.92155C2.72059e-07 1.41192 0.193646 0.92317 0.538338 0.56281C0.88303 0.20245 1.35053 2.56169e-06 1.838 2.56169e-06H20.16C20.4016 -0.000409924 20.6409 0.0489956 20.8641 0.14539C21.0874 0.241785 21.2903 0.383276 21.4612 0.561763C21.6322 0.74025 21.7677 0.952227 21.8602 1.18556C21.9526 1.41889 22.0001 1.66899 22 1.92155V21.0764C22.0003 21.329 21.9529 21.5791 21.8606 21.8126C21.7683 22.046 21.6328 22.2582 21.462 22.4368C21.2912 22.6155 21.0884 22.7572 20.8651 22.8538C20.6419 22.9505 20.4026 23.0001 20.161 23H1.838C1.59655 23 1.35746 22.9503 1.1344 22.8536C0.911335 22.757 0.708671 22.6154 0.537984 22.4368C0.367297 22.2583 0.231932 22.0463 0.139623 21.8131C0.0473133 21.5798 -0.000131096 21.3298 2.72059e-07 21.0774V1.92155ZM8.708 8.76927H11.687V10.3333C12.117 9.43418 13.217 8.625 14.87 8.625C18.039 8.625 18.79 10.4159 18.79 13.7017V19.7884H15.583V14.4503C15.583 12.5789 15.153 11.523 14.061 11.523C12.546 11.523 11.916 12.6615 11.916 14.4503V19.7884H8.708V8.76927ZM3.208 19.6451H6.416V8.625H3.208V19.6451ZM6.875 5.03073C6.88105 5.31789 6.83217 5.60342 6.73124 5.87056C6.63031 6.1377 6.47935 6.38108 6.28723 6.5864C6.09511 6.79172 5.8657 6.95486 5.61245 7.06624C5.35921 7.17761 5.08724 7.23498 4.8125 7.23498C4.53776 7.23498 4.26579 7.17761 4.01255 7.06624C3.7593 6.95486 3.52989 6.79172 3.33777 6.5864C3.14565 6.38108 2.99469 6.1377 2.89376 5.87056C2.79283 5.60342 2.74395 5.31789 2.75 5.03073C2.76187 4.46708 2.98439 3.93069 3.36989 3.53645C3.75539 3.1422 4.27322 2.92144 4.8125 2.92144C5.35178 2.92144 5.86961 3.1422 6.25511 3.53645C6.64061 3.93069 6.86313 4.46708 6.875 5.03073Z" fill="white"/>
</svg>
