<svg width="23" height="23" viewBox="0 0 23 23" fill="none" xmlns="http://www.w3.org/2000/svg">
<path d="M20.5908 17.0275H18.7492C18.6234 17.0275 18.5055 17.0825 18.427 17.1795C18.2436 17.4021 18.0471 17.6169 17.8402 17.8213C16.9937 18.6685 15.9912 19.3437 14.8879 19.8096C13.7448 20.2923 12.5162 20.54 11.2754 20.5378C10.0206 20.5378 8.80511 20.2916 7.66296 19.8096C6.55965 19.3437 5.55707 18.6685 4.71065 17.8213C3.86272 16.9769 3.1866 15.976 2.71974 14.8742C2.23511 13.7321 1.99149 12.5192 1.99149 11.2644C1.99149 10.0096 2.23773 8.7967 2.71974 7.65455C3.18603 6.55169 3.85666 5.55886 4.71065 4.70748C5.56464 3.85611 6.55748 3.18549 7.66296 2.7192C8.80511 2.23719 10.0206 1.99095 11.2754 1.99095C12.5302 1.99095 13.7457 2.23457 14.8879 2.7192C15.9933 3.18549 16.9862 3.85611 17.8402 4.70748C18.0471 4.91443 18.241 5.12924 18.427 5.34929C18.5055 5.44622 18.626 5.50123 18.7492 5.50123H20.5908C20.7558 5.50123 20.858 5.31785 20.7663 5.17902C18.757 2.05644 15.2415 -0.0104388 11.2466 3.96575e-05C4.96999 0.0157573 -0.062288 5.11091 0.000582745 11.3796C0.0634535 17.5488 5.08788 22.5287 11.2754 22.5287C15.2598 22.5287 18.7596 20.4645 20.7663 17.3497C20.8553 17.2109 20.7558 17.0275 20.5908 17.0275ZM22.9196 11.0993L19.2024 8.16537C19.0635 8.05535 18.8618 8.1549 18.8618 8.33041V10.3213H10.6362C10.521 10.3213 10.4267 10.4156 10.4267 10.5309V11.9979C10.4267 12.1131 10.521 12.2074 10.6362 12.2074H18.8618V14.1983C18.8618 14.3739 19.0661 14.4734 19.2024 14.3634L22.9196 11.4294C22.9446 11.4098 22.9649 11.3848 22.9788 11.3562C22.9928 11.3276 23 11.2962 23 11.2644C23 11.2326 22.9928 11.2012 22.9788 11.1726C22.9649 11.144 22.9446 11.1189 22.9196 11.0993Z" fill="white"/>
</svg>
