<svg width="22" height="22" viewBox="0 0 22 22" fill="none" xmlns="http://www.w3.org/2000/svg">
<path d="M7.07143 16.5C6.86305 16.5 6.6632 16.4172 6.51585 16.2699C6.3685 16.1225 6.28572 15.9227 6.28572 15.7143V6.28571C6.28579 6.15183 6.32007 6.02019 6.3853 5.90328C6.45054 5.78637 6.54456 5.68807 6.65846 5.6177C6.77235 5.54734 6.90234 5.50724 7.03608 5.50121C7.16982 5.49519 7.30289 5.52344 7.42265 5.58328L16.8512 10.2976C16.9816 10.3629 17.0911 10.4632 17.1677 10.5872C17.2443 10.7113 17.2849 10.8542 17.2849 11C17.2849 11.1458 17.2443 11.2887 17.1677 11.4128C17.0911 11.5368 16.9816 11.6371 16.8512 11.7024L7.42265 16.4167C7.31361 16.4713 7.19338 16.4998 7.07143 16.5ZM7.85715 7.557V14.443L14.7431 11L7.85715 7.557Z"/>
<path d="M11 1.57143C12.8648 1.57143 14.6877 2.1244 16.2382 3.16043C17.7888 4.19645 18.9972 5.66899 19.7109 7.39184C20.4245 9.11469 20.6112 11.0105 20.2474 12.8394C19.8836 14.6684 18.9856 16.3484 17.667 17.667C16.3484 18.9856 14.6684 19.8836 12.8394 20.2474C11.0105 20.6112 9.11469 20.4245 7.39185 19.7109C5.669 18.9972 4.19646 17.7888 3.16043 16.2382C2.12441 14.6877 1.57143 12.8648 1.57143 11C1.57143 8.49939 2.5648 6.10119 4.333 4.33299C6.1012 2.56479 8.49939 1.57143 11 1.57143ZM11 0C8.82441 0 6.69767 0.645139 4.88873 1.85383C3.07979 3.06253 1.66989 4.78049 0.83733 6.79048C0.00476611 8.80047 -0.213071 11.0122 0.211367 13.146C0.635804 15.2798 1.68345 17.2398 3.22183 18.7782C4.76021 20.3165 6.72022 21.3642 8.85401 21.7886C10.9878 22.2131 13.1995 21.9952 15.2095 21.1627C17.2195 20.3301 18.9375 18.9202 20.1462 17.1113C21.3549 15.3023 22 13.1756 22 11C22 8.08262 20.8411 5.28472 18.7782 3.22182C16.7153 1.15892 13.9174 0 11 0Z"/>
</svg>
