<svg width="20" height="20" viewBox="0 0 20 20" fill="none" xmlns="http://www.w3.org/2000/svg">
<path d="M19.5325 4.5325L15.4675 0.4675C15.1675 0.1675 14.76 0 14.335 0H0.8C0.3575 0 0 0.3575 0 0.8V19.2C0 19.6425 0.3575 20 0.8 20H19.2C19.6425 20 20 19.6425 20 19.2V5.6625C20 5.2375 19.8325 4.8325 19.5325 4.5325ZM6.8 1.6H13.2V4.4H6.8V1.6ZM10 15.45C8.0125 15.45 6.4 13.8375 6.4 11.85C6.4 9.8625 8.0125 8.25 10 8.25C11.9875 8.25 13.6 9.8625 13.6 11.85C13.6 13.8375 11.9875 15.45 10 15.45ZM10 9.85C8.895 9.85 8 10.745 8 11.85C8 12.955 8.895 13.85 10 13.85C11.105 13.85 12 12.955 12 11.85C12 10.745 11.105 9.85 10 9.85Z" fill="white"/>
</svg>
