<svg width="30" height="31" viewBox="0 0 30 31" fill="none" xmlns="http://www.w3.org/2000/svg">
<path d="M17.8152 30.9224H12.1873C11.8347 30.9224 11.4926 30.8019 11.2179 30.5809C10.9432 30.3599 10.7522 30.0516 10.6768 29.7071L10.0475 26.7942C9.20803 26.4264 8.41205 25.9665 7.67419 25.4228L4.83397 26.3273C4.49779 26.4345 4.13505 26.4235 3.80599 26.2961C3.47693 26.1687 3.20135 25.9326 3.02501 25.6269L0.204893 20.7551C0.0304066 20.4492 -0.0350914 20.0931 0.0191153 19.7451C0.073322 19.3971 0.244024 19.0778 0.503294 18.8395L2.70651 16.8295C2.60632 15.919 2.60632 15.0003 2.70651 14.0898L0.503294 12.0845C0.243657 11.846 0.0727227 11.5264 0.0185071 11.1781C-0.0357085 10.8298 0.0300107 10.4734 0.204893 10.1673L3.01883 5.29236C3.19517 4.98672 3.47075 4.75059 3.79981 4.62318C4.12886 4.49578 4.4916 4.48477 4.82779 4.59197L7.66801 5.49645C8.04526 5.21815 8.43797 4.9584 8.84306 4.72339C9.23423 4.50384 9.63622 4.30439 10.0475 4.12659L10.6783 1.2168C10.7534 0.872316 10.944 0.56385 11.2184 0.342541C11.4929 0.121231 11.8347 0.000371016 12.1873 0H17.8152C18.1678 0.000371016 18.5096 0.121231 18.7841 0.342541C19.0585 0.56385 19.2491 0.872316 19.3242 1.2168L19.9612 4.12814C20.8002 4.49596 21.5956 4.95592 22.3329 5.49954L25.1747 4.59506C25.5107 4.48825 25.8731 4.49947 26.2018 4.62685C26.5305 4.75424 26.8058 4.99014 26.9821 5.29546L29.7961 10.1704C30.1548 10.7996 30.0311 11.5959 29.4977 12.086L27.2944 14.096C27.3946 15.0065 27.3946 15.9252 27.2944 16.8357L29.4977 18.8456C30.0311 19.3373 30.1548 20.132 29.7961 20.7613L26.9821 25.6362C26.8058 25.9418 26.5302 26.178 26.2011 26.3054C25.8721 26.4328 25.5093 26.4438 25.1732 26.3366L22.3329 25.4321C21.5957 25.9753 20.8002 26.4348 19.9612 26.802L19.3242 29.7071C19.2488 30.0513 19.0581 30.3594 18.7837 30.5804C18.5092 30.8014 18.1675 30.9221 17.8152 30.9224ZM8.22925 21.9997L9.49707 22.9274C9.7831 23.1377 10.08 23.3309 10.3892 23.5072C10.6798 23.6757 10.9767 23.8272 11.2844 23.9648L12.7269 24.5972L13.4335 27.8301H16.5721L17.2787 24.5957L18.7212 23.9633C19.3505 23.685 19.9488 23.3402 20.5039 22.9336L21.7717 22.0059L24.9289 23.0109L26.4982 20.2928L24.0507 18.0618L24.2238 16.4971C24.3012 15.8122 24.3012 15.121 24.2238 14.4377L24.0507 12.873L26.4997 10.6373L24.9289 7.91767L21.7732 8.92265L20.5039 7.99498C19.9485 7.58633 19.3509 7.23851 18.7212 6.95753L17.2787 6.32517L16.5721 3.09224H13.4335L12.7223 6.32672L11.2844 6.95753C10.6538 7.23368 10.056 7.57904 9.5017 7.98725L8.23234 8.91492L5.07826 7.90994L3.50586 10.6373L5.95336 12.8653L5.7802 14.4315C5.70289 15.1164 5.70289 15.8075 5.7802 16.4909L5.95336 18.0556L3.50586 20.2866L5.07517 23.0047L8.22925 21.9997ZM14.9951 21.6457C13.3548 21.6457 11.7818 20.9941 10.622 19.8343C9.46217 18.6745 8.81059 17.1014 8.81059 15.4612C8.81059 13.821 9.46217 12.2479 10.622 11.0881C11.7818 9.92829 13.3548 9.27671 14.9951 9.27671C16.6353 9.27671 18.2083 9.92829 19.3681 11.0881C20.528 12.2479 21.1795 13.821 21.1795 15.4612C21.1795 17.1014 20.528 18.6745 19.3681 19.8343C18.2083 20.9941 16.6353 21.6457 14.9951 21.6457ZM14.9951 12.3689C14.3895 12.3696 13.7975 12.5479 13.2924 12.882C12.7874 13.216 12.3915 13.6909 12.1539 14.2479C11.9163 14.8049 11.8475 15.4194 11.956 16.0151C12.0644 16.6108 12.3454 17.1616 12.7641 17.5991C13.1827 18.0366 13.7206 18.3415 14.311 18.4761C14.9014 18.6107 15.5183 18.5689 16.0852 18.3561C16.6521 18.1432 17.144 17.7686 17.4999 17.2787C17.8558 16.7889 18.0601 16.2052 18.0873 15.6003V16.2188V15.4612C18.0873 14.6411 17.7615 13.8545 17.1816 13.2746C16.6017 12.6947 15.8152 12.3689 14.9951 12.3689Z" fill="white"/>
</svg>
