<svg width="22" height="24" viewBox="0 0 22 24" fill="none" xmlns="http://www.w3.org/2000/svg">
<path d="M4.04862 15.01C5.05854 15.007 6.03025 14.6236 6.77012 13.9362L13.9982 18.0664C13.756 19.0127 13.8628 20.0147 14.2989 20.8887C14.7351 21.7628 15.4715 22.4505 16.3732 22.8261C17.275 23.2016 18.2819 23.2397 19.2095 22.9336C20.1372 22.6274 20.9235 21.9974 21.4246 21.1588C21.9256 20.3203 22.1079 19.3293 21.9381 18.3674C21.7682 17.4054 21.2576 16.5368 20.4997 15.9205C19.7417 15.3043 18.7872 14.9816 17.8108 15.0116C16.8344 15.0416 15.9015 15.4222 15.1829 16.0839L7.95478 11.9537C8.03099 11.665 8.07256 11.366 8.07948 11.0669L15.1805 7.00836C15.8643 7.63046 16.7412 7.99847 17.6641 8.05068C18.587 8.10288 19.4998 7.8361 20.2494 7.29508C20.9989 6.75406 21.5396 5.97173 21.7807 5.07932C22.0218 4.18692 21.9487 3.23875 21.5736 2.39387C21.1985 1.54899 20.5443 0.858816 19.7206 0.43913C18.897 0.019443 17.9541 -0.10422 17.0501 0.0888866C16.1461 0.281993 15.336 0.780121 14.7557 1.4997C14.1754 2.21928 13.8603 3.11653 13.8631 4.04093C13.8677 4.37347 13.9127 4.70485 13.9982 5.02584L7.43519 8.77497C7.0546 8.18617 6.52737 7.70652 5.90531 7.38313C5.28325 7.05975 4.58776 6.90375 3.88718 6.93048C3.18659 6.95721 2.50501 7.16574 1.9094 7.53559C1.31379 7.90543 0.824643 8.42387 0.490017 9.03995C0.155392 9.65604 -0.0131999 10.3486 0.000806743 11.0495C0.0148133 11.7505 0.210936 12.4357 0.569906 13.038C0.928877 13.6402 1.43834 14.1387 2.04825 14.4844C2.65816 14.8302 3.34753 15.0113 4.04862 15.01Z" fill="white"/>
</svg>
