<svg width="25" height="30" viewBox="0 0 25 30" fill="none" xmlns="http://www.w3.org/2000/svg">
<path d="M22.2222 0H2.77778C2.04107 0 1.33453 0.292658 0.813592 0.813592C0.292658 1.33453 0 2.04107 0 2.77778V22.2222C0 22.9589 0.292658 23.6655 0.813592 24.1864C1.33453 24.7073 2.04107 25 2.77778 25H8.33333L12.5 29.1667L16.6667 25H22.2222C23.75 25 25 23.75 25 22.2222V2.77778C25 1.25 23.75 0 22.2222 0ZM13.8889 22.2222H11.1111V19.4444H13.8889V22.2222ZM16.7639 11.4583L15.5139 12.7361C14.5139 13.75 13.8889 14.5833 13.8889 16.6667H11.1111V15.9722C11.1111 14.4444 11.7361 13.0556 12.7361 12.0417L14.4583 10.2917C14.9722 9.79167 15.2778 9.09722 15.2778 8.33333C15.2778 6.80556 14.0278 5.55556 12.5 5.55556C10.9722 5.55556 9.72222 6.80556 9.72222 8.33333H6.94444C6.94444 5.26389 9.43056 2.77778 12.5 2.77778C15.5694 2.77778 18.0556 5.26389 18.0556 8.33333C18.0556 9.55556 17.5556 10.6667 16.7639 11.4583Z" fill="white"/>
</svg>
