<svg width="20" height="21" viewBox="0 0 20 21" fill="none" xmlns="http://www.w3.org/2000/svg">
<path d="M1.92129 3.25383L0.201292 1.53383C0.0688118 1.39166 -0.00331137 1.20361 0.000116847 1.00931C0.00354506 0.81501 0.0822571 0.629625 0.21967 0.492212C0.357083 0.354799 0.542468 0.276087 0.736769 0.272659C0.93107 0.269231 1.11912 0.341354 1.26129 0.473834L19.7613 18.9738C19.8938 19.116 19.9659 19.3041 19.9625 19.4984C19.959 19.6927 19.8803 19.878 19.7429 20.0155C19.6055 20.1529 19.4201 20.2316 19.2258 20.235C19.0315 20.2384 18.8435 20.1663 18.7013 20.0338L16.4083 17.7418L16.4053 17.7728C16.3416 18.4223 16.049 19.028 15.5799 19.4815C15.1107 19.9351 14.4955 20.2071 13.8443 20.2488L13.6683 20.2538H6.29429C5.64175 20.2538 5.01048 20.0218 4.5133 19.5991C4.01611 19.1765 3.68541 18.5909 3.58029 17.9468L3.55729 17.7728L2.27629 4.75383H1.48129C1.30005 4.75383 1.12495 4.68819 0.988361 4.56907C0.851773 4.44994 0.76294 4.28539 0.738292 4.10583L0.731292 4.00383C0.731299 3.8226 0.796934 3.64749 0.916059 3.5109C1.03518 3.37431 1.19974 3.28548 1.37929 3.26083L1.48129 3.25383H1.92129ZM15.0363 16.3698L12.4813 13.8138V15.2538C12.4812 15.4439 12.409 15.6268 12.2793 15.7656C12.1496 15.9045 11.972 15.9889 11.7824 16.0019C11.5928 16.0148 11.4054 15.9553 11.258 15.8354C11.1106 15.7155 11.0142 15.5441 10.9883 15.3558L10.9813 15.2538V12.3138L8.98129 10.3138V15.2538C8.98123 15.4439 8.90905 15.6268 8.77932 15.7656C8.64959 15.9045 8.47199 15.9889 8.28241 16.0019C8.09283 16.0148 7.9054 15.9553 7.75799 15.8354C7.61059 15.7155 7.51419 15.5441 7.48829 15.3558L7.48129 15.2538V8.81383L3.82329 5.15683L5.05029 17.6268C5.07835 17.914 5.20492 18.1827 5.40852 18.3872C5.61212 18.5917 5.88021 18.7195 6.16729 18.7488L6.29429 18.7548H13.6683C14.2683 18.7548 14.7773 18.3298 14.8933 17.7528L14.9133 17.6268L15.0363 16.3708V16.3698Z" fill="#FF0000"/>
<path d="M10.9993 8.08983L12.4813 9.57183V8.25383L12.4743 8.15183C12.4504 7.97758 12.3661 7.81724 12.2361 7.69885C12.106 7.58046 11.9384 7.51155 11.7627 7.50417C11.587 7.49678 11.4143 7.55139 11.2747 7.65844C11.1352 7.7655 11.0377 7.91819 10.9993 8.08983Z" fill="#FF0000"/>
<path d="M16.1783 4.75383L15.4163 12.5068L16.7883 13.8788L17.6853 4.75383H18.4813L18.5833 4.74683C18.7715 4.72093 18.9429 4.62454 19.0629 4.47713C19.1828 4.32973 19.2423 4.1423 19.2293 3.95271C19.2164 3.76313 19.1319 3.58553 18.9931 3.45581C18.8542 3.32608 18.6713 3.25389 18.4813 3.25383H13.2313L13.2263 3.06983C13.1794 2.22446 12.8044 1.43077 12.1811 0.857674C11.5579 0.28458 10.7356 -0.0226716 9.88926 0.00130479C9.04292 0.0252812 8.23934 0.378593 7.64955 0.986051C7.05975 1.59351 6.73029 2.40715 6.73129 3.25383H6.16329L7.66329 4.75383H16.1783ZM9.98129 1.50383C10.9473 1.50383 11.7313 2.28783 11.7313 3.25383H8.23129L8.23729 3.10983C8.27343 2.67213 8.47283 2.26402 8.7959 1.96651C9.11897 1.669 9.5421 1.50385 9.98129 1.50383Z" fill="#FF0000"/>
</svg>
