<svg width="30" height="39" viewBox="0 0 30 39" fill="none" xmlns="http://www.w3.org/2000/svg">
<path d="M29.5994 9.57102L20.429 0.400568C20.1733 0.144886 19.8281 0 19.4659 0H1.36364C0.609375 0 0 0.609375 0 1.36364V36.8182C0 37.5724 0.609375 38.1818 1.36364 38.1818H28.6364C29.3906 38.1818 30 37.5724 30 36.8182V10.5384C30 10.1761 29.8551 9.8267 29.5994 9.57102ZM26.8551 11.1648H18.8352V3.14489L26.8551 11.1648ZM26.9318 35.1136H3.06818V3.06818H15.9375V12.2727C15.9375 12.7474 16.1261 13.2026 16.4617 13.5383C16.7974 13.8739 17.2526 14.0625 17.7273 14.0625H26.9318V35.1136ZM16.3636 17.3864C16.3636 17.1989 16.2102 17.0455 16.0227 17.0455H13.9773C13.7898 17.0455 13.6364 17.1989 13.6364 17.3864V21.9886H9.03409C8.84659 21.9886 8.69318 22.142 8.69318 22.3295V24.375C8.69318 24.5625 8.84659 24.7159 9.03409 24.7159H13.6364V29.3182C13.6364 29.5057 13.7898 29.6591 13.9773 29.6591H16.0227C16.2102 29.6591 16.3636 29.5057 16.3636 29.3182V24.7159H20.9659C21.1534 24.7159 21.3068 24.5625 21.3068 24.375V22.3295C21.3068 22.142 21.1534 21.9886 20.9659 21.9886H16.3636V17.3864Z" fill="white"/>
</svg>
