<svg width="25" height="29" viewBox="0 0 25 29" fill="none" xmlns="http://www.w3.org/2000/svg">
<path d="M24.625 20.6923C23.0799 19.0183 21.205 17.6823 19.1182 16.7686C17.0314 15.8548 14.7781 15.3831 12.5 15.3831C10.2219 15.3831 7.96856 15.8548 5.88179 16.7686C3.79501 17.6823 1.92005 19.0183 0.375 20.6923C0.136458 20.9561 0.00302143 21.2982 0 21.6538V27.4231C0.0050562 27.8023 0.159242 28.1642 0.429181 28.4305C0.69912 28.6969 1.06309 28.8462 1.44231 28.8462H23.5577C23.9402 28.8462 24.3071 28.6942 24.5776 28.4237C24.848 28.1532 25 27.7864 25 27.4038V21.6346C24.9923 21.2856 24.8592 20.9511 24.625 20.6923Z" fill="white"/>
<path d="M12.5 13.4615C16.2173 13.4615 19.2308 10.4481 19.2308 6.73077C19.2308 3.01347 16.2173 0 12.5 0C8.7827 0 5.76923 3.01347 5.76923 6.73077C5.76923 10.4481 8.7827 13.4615 12.5 13.4615Z" fill="white"/>
</svg>
