<svg width="22" height="21" viewBox="0 0 22 21" fill="none" xmlns="http://www.w3.org/2000/svg">
<path d="M3.10911 15.0411L4.15781 13.9997C3.00953 12.9687 2.10733 11.6931 1.51773 10.267C3.00644 6.54885 7.11322 3.66677 11 3.66677C12.0002 3.67997 12.9914 3.85838 13.9334 4.19479L15.0701 3.05075C13.7814 2.50611 12.399 2.21719 11 2.20006C8.60964 2.28995 6.29802 3.07829 4.35083 4.46766C2.40363 5.85702 0.906232 7.7865 0.0436893 10.0176C-0.0145631 10.1787 -0.0145631 10.3552 0.0436893 10.5163C0.695089 12.2448 1.74538 13.7951 3.10911 15.0411Z" fill="white"/>
<path d="M8.06658 10.069C8.11758 9.36619 8.41983 8.70526 8.91807 8.20703C9.4163 7.70879 10.0772 7.40654 10.78 7.35554L12.1074 6.02084C11.3636 5.82499 10.5814 5.82754 9.83892 6.02822C9.09642 6.2289 8.41948 6.6207 7.87561 7.16457C7.33174 7.70844 6.93994 8.38538 6.73926 9.12788C6.53858 9.87039 6.53603 10.6525 6.73188 11.3963L8.06658 10.069Z" fill="white"/>
<path d="M21.9563 10.0176C21.1154 7.82724 19.6522 5.93065 17.7469 4.56146L21.267 1.03403L20.2329 0L0.733042 19.4999L1.76707 20.5339L5.50718 16.7938C7.17473 17.7721 9.06691 18.3026 11 18.3339C13.3904 18.244 15.702 17.4556 17.6492 16.0663C19.5964 14.6769 21.0938 12.7474 21.9563 10.5163C22.0146 10.3552 22.0146 10.1787 21.9563 10.0176ZM13.9334 10.267C13.9303 10.7804 13.7925 11.284 13.5338 11.7275C13.2751 12.171 12.9045 12.5388 12.4591 12.7941C12.0137 13.0495 11.509 13.1835 10.9956 13.1827C10.4822 13.1819 9.97793 13.0464 9.53329 12.7897L13.5227 8.80025C13.7864 9.24446 13.9281 9.75042 13.9334 10.267ZM11 16.8671C9.46147 16.8403 7.9521 16.4428 6.59988 15.7084L8.46259 13.8457C9.30987 14.4336 10.3367 14.7052 11.3638 14.6132C12.391 14.5211 13.3531 14.0712 14.0823 13.342C14.8115 12.6128 15.2615 11.6506 15.3535 10.6235C15.4456 9.59633 15.174 8.56949 14.5861 7.72222L16.6908 5.61749C18.3736 6.77251 19.6895 8.38622 20.4823 10.267C18.9936 13.9851 14.8868 16.8671 11 16.8671Z" fill="white"/>
</svg>
