<svg width="30" height="31" viewBox="0 0 30 31" fill="none" xmlns="http://www.w3.org/2000/svg">
<path d="M25.2357 0C26.1105 0 26.9494 0.347503 27.568 0.966063C28.1866 1.58462 28.5341 2.42357 28.5341 3.29835V11.3053C28.534 12.5688 28.032 13.7806 27.1385 14.674L27.1004 14.7121C25.2783 13.5363 23.1097 13.0171 20.9526 13.2404C18.7956 13.4637 16.7793 14.416 15.2367 15.9402C13.6941 17.4643 12.7176 19.469 12.4683 21.6232C12.2191 23.7774 12.7121 25.9521 13.866 27.7882C12.9512 28.369 11.8661 28.6212 10.789 28.5034C9.71186 28.3857 8.70686 27.9049 7.9392 27.1403L1.39822 20.611C0.50405 19.7183 0.00110145 18.507 1.80698e-06 17.2435C-0.00109784 15.98 0.499741 14.7678 1.39235 13.8736L13.8528 1.3985C14.2954 0.955472 14.821 0.60405 15.3995 0.364334C15.9781 0.124618 16.5982 0.00131045 17.2244 0.00146583L25.2357 0ZM21.2044 5.13369C20.9156 5.13369 20.6297 5.19057 20.3629 5.30108C20.0961 5.41158 19.8537 5.57355 19.6496 5.77774C19.4454 5.98192 19.2834 6.22433 19.1729 6.49111C19.0624 6.75789 19.0055 7.04383 19.0055 7.33259C19.0055 7.62136 19.0624 7.90729 19.1729 8.17407C19.2834 8.44086 19.4454 8.68326 19.6496 8.88745C19.8537 9.09163 20.0961 9.2536 20.3629 9.36411C20.6297 9.47461 20.9156 9.53149 21.2044 9.53149C21.7876 9.53149 22.3469 9.29982 22.7593 8.88745C23.1716 8.47507 23.4033 7.91578 23.4033 7.33259C23.4033 6.74941 23.1716 6.19011 22.7593 5.77774C22.3469 5.36536 21.7876 5.13369 21.2044 5.13369ZM30 22.7219C30 24.8603 29.1505 26.911 27.6385 28.4231C26.1265 29.9351 24.0757 30.7846 21.9374 30.7846C19.799 30.7846 17.7483 29.9351 16.2362 28.4231C14.7242 26.911 13.8748 24.8603 13.8748 22.7219C13.8748 20.5836 14.7242 18.5328 16.2362 17.0208C17.7483 15.5088 19.799 14.6593 21.9374 14.6593C24.0757 14.6593 26.1265 15.5088 27.6385 17.0208C29.1505 18.5328 30 20.5836 30 22.7219ZM19.523 19.2711C19.4548 19.2031 19.374 19.1491 19.285 19.1123C19.1959 19.0755 19.1006 19.0566 19.0043 19.0567C18.8098 19.0568 18.6233 19.1342 18.4858 19.2719C18.3484 19.4095 18.2713 19.5961 18.2714 19.7906C18.2715 19.9851 18.3489 20.1716 18.4866 20.309L20.901 22.7219L18.4866 25.1349C18.3489 25.2723 18.2715 25.4588 18.2714 25.6533C18.2713 25.8478 18.3484 26.0344 18.4858 26.172C18.6233 26.3096 18.8098 26.387 19.0043 26.3872C19.1988 26.3873 19.3854 26.3102 19.523 26.1728L21.9374 23.7584L24.3503 26.1728C24.4879 26.3102 24.6745 26.3873 24.869 26.3872C25.0635 26.387 25.25 26.3096 25.3874 26.172C25.5249 26.0344 25.602 25.8478 25.6019 25.6533C25.6017 25.4588 25.5243 25.2723 25.3867 25.1349L22.9738 22.7219L25.3867 20.309C25.4549 20.241 25.5089 20.1602 25.5459 20.0712C25.5828 19.9823 25.6018 19.8869 25.6019 19.7906C25.6019 19.6943 25.583 19.5989 25.5463 19.5099C25.5095 19.4209 25.4555 19.34 25.3874 19.2719C25.3194 19.2037 25.2386 19.1497 25.1496 19.1127C25.0607 19.0758 24.9653 19.0568 24.869 19.0567C24.7727 19.0566 24.6773 19.0755 24.5883 19.1123C24.4993 19.1491 24.4184 19.2031 24.3503 19.2711L21.9374 21.6855L19.523 19.2711Z" fill="white"/>
</svg>
